<svg enable-background="new 0 0 512 512" version="1.1" viewBox="0 0 512 512" xmlns="http://www.w3.org/2000/svg">
 <path d="m311.47 122.88v-63.147h-119.47v63.147c-64.853 28.16-110.93 99.84-110.93 184.32 0 108.37 76.8 196.27 170.67 196.27s170.67-87.894 170.67-196.27c0-84.48-46.08-156.16-110.93-184.32" fill="#ffe100"/>
 <path d="m320 122.88v-63.147h-8.533v63.147c64.853 28.16 110.93 99.84 110.93 184.32 0 108.37-76.8 196.27-170.67 196.27 108.37 0 196.27-87.894 196.27-196.27 0-84.48-52.907-156.16-128-184.32" fill="#ffa800"/>
 <path d="m448 307.2c0-7.68-0.853-15.36-1.707-22.187-36.693-16.213-65.707-27.307-100.69 5.12-25.6 25.6-44.373 20.48-87.04-0.853-44.373-27.307-87.893-42.667-128 8.533-17.067 22.187-45.227 29.014-74.24 24.747 7.68 101.55 92.16 180.91 195.41 180.91 108.37 0 196.27-87.894 196.27-196.27" fill="#3db9f9"/>
 <path d="m422.4 307.2c0-7.68-0.853-15.36-1.707-22.187-36.693-16.213-40.106-27.306-75.093 5.12-25.6 25.6-44.373 20.48-87.04-0.853-44.373-27.307-87.893-42.667-128 8.533-17.067 22.187-45.227 29.014-74.24 24.747 7.68 101.55 92.16 180.91 195.41 180.91 108.37 0 170.67-87.894 170.67-196.27" fill="#63d3fd"/>
 <path d="m81.067 307.2c0-84.48 46.08-156.16 110.93-184.32v-63.147h-8.533v63.147c-75.093 28.16-128 99.84-128 184.32 0 108.37 87.893 196.27 196.27 196.27-93.867 0-170.67-87.894-170.67-196.27" fill="#fff"/>
 <path d="m294.4 59.733h-85.333c-14.507 0-25.6-11.093-25.6-25.6s11.093-25.6 25.6-25.6h85.333c14.507 0 25.6 11.093 25.6 25.6s-11.093 25.6-25.6 25.6" fill="#ffe100"/>
 <path d="m183.47 34.133c0-14.507 11.093-25.6 25.6-25.6h-25.6c-14.507 0-25.6 11.093-25.6 25.6s11.093 25.6 25.6 25.6h25.6c-14.507 0-25.6-11.093-25.6-25.6" fill="#fff"/>
 <path d="m320 8.533h-25.6c14.507 0 25.6 11.093 25.6 25.6s-11.093 25.6-25.6 25.6h25.6c14.507 0 25.6-11.093 25.6-25.6s-11.093-25.6-25.6-25.6" fill="#ffa800"/>
 <path d="m320 68.267h-136.53c-18.773 0-34.133-15.36-34.133-34.133s15.359-34.134 34.133-34.134h136.53c18.773 0 34.133 15.36 34.133 34.133s-15.36 34.134-34.133 34.134zm-136.53-51.2c-9.387 0-17.067 7.68-17.067 17.067s7.68 17.066 17.067 17.066h136.53c9.387 0 17.067-7.68 17.067-17.067s-7.68-17.066-17.067-17.066z"/>
 <path d="m251.73 512c-112.64 0-204.8-92.16-204.8-204.8 0-83.627 51.2-158.72 128-190.29v-57.174c0-5.12 3.413-8.533 8.533-8.533h136.53c5.12 0 8.533 3.413 8.533 8.533v57.173c76.8 30.72 128 106.67 128 190.29 0 112.64-92.16 204.8-204.8 204.8zm-59.733-443.73v54.613c0 3.413-2.56 6.827-5.973 7.68-72.534 28.16-122.03 98.133-122.03 176.64 0 103.25 84.48 187.73 187.73 187.73s187.73-84.48 187.73-187.73c0-78.507-49.493-148.48-122.03-175.79-3.413-0.853-5.973-4.267-5.973-7.68v-55.466h-119.47z"/>
 <path d="m192 179.2h-34.133c-5.12 0-8.533-3.413-8.533-8.533s3.413-8.533 8.533-8.533h34.133c5.12 0 8.533 3.413 8.533 8.533s-3.413 8.533-8.533 8.533z"/>
 <path d="m157.87 213.33h-25.6c-5.12 0-8.533-3.413-8.533-8.533s3.413-8.533 8.533-8.533h25.6c5.12 0 8.533 3.413 8.533 8.533s-3.413 8.533-8.533 8.533z"/>
 <path d="m149.33 247.47h-42.667c-5.12 0-8.533-3.413-8.533-8.533s3.413-8.533 8.533-8.533h42.667c5.12 0 8.533 3.413 8.533 8.533 1e-3 5.119-3.413 8.533-8.533 8.533z"/>
 <path d="m251.73 512c-105.81 0-196.27-82.773-203.95-188.59 0-2.56 0.853-5.12 2.56-6.827s4.267-2.56 6.827-2.56c17.067 2.56 47.787 3.413 66.56-21.333 44.373-57.173 93.013-39.253 139.09-11.093 41.813 20.48 54.613 23.04 75.947 1.707 40.96-38.4 76.8-22.187 110.08-6.827 2.56 0.853 4.267 3.413 5.12 6.827 0.853 8.533 1.707 16.213 1.707 23.04 0.852 113.49-91.308 205.65-203.95 205.65zm-186.03-180.05c11.947 92.16 92.16 162.99 186.03 162.99 103.25 0 187.73-84.48 187.73-187.73 0-5.12 0-10.24-0.853-17.067-34.133-15.36-57.173-21.333-87.04 5.973-30.72 30.72-55.467 20.48-96.427 0.853-47.787-29.013-83.627-37.547-117.76 5.973-16.214 21.334-40.96 31.574-71.68 29.014z"/>
</svg>
